{
	"asset":{
		"generator":"Khronos glTF Blender I/O v3.6.27",
		"version":"2.0"
	},
	"scene":0,
	"scenes":[
		{
			"name":"Scene",
			"nodes":[
				0
			]
		}
	],
	"nodes":[
		{
			"mesh":0,
			"name":"Spaceship2"
		}
	],
	"materials":[
		{
			"doubleSided":true,
			"name":"White",
			"pbrMetallicRoughness":{
				"baseColorFactor":[
					0.800000011920929,
					0.800000011920929,
					0.800000011920929,
					1
				],
				"metallicFactor":0,
				"roughnessFactor":0.5
			}
		},
		{
			"doubleSided":true,
			"name":"Black",
			"pbrMetallicRoughness":{
				"baseColorFactor":[
					0.02365054376423359,
					0.02365054376423359,
					0.02365054376423359,
					1
				],
				"metallicFactor":0,
				"roughnessFactor":0.5
			}
		}
	],
	"meshes":[
		{
			"name":"Cylinder",
			"primitives":[
				{
					"attributes":{
						"POSITION":0,
						"NORMAL":1
					},
					"indices":2,
					"material":0
				},
				{
					"attributes":{
						"POSITION":3,
						"NORMAL":4
					},
					"indices":5,
					"material":1
				}
			]
		}
	],
	"accessors":[
		{
			"bufferView":0,
			"componentType":5126,
			"count":1112,
			"max":[
				3.240138530731201,
				1.1677885055541992,
				2.7888646125793457
			],
			"min":[
				-3.240138530731201,
				-0.0060402750968933105,
				-1.2822332382202148
			],
			"type":"VEC3"
		},
		{
			"bufferView":1,
			"componentType":5126,
			"count":1112,
			"type":"VEC3"
		},
		{
			"bufferView":2,
			"componentType":5123,
			"count":1872,
			"type":"SCALAR"
		},
		{
			"bufferView":3,
			"componentType":5126,
			"count":10,
			"max":[
				0.3726999759674072,
				0.8514581918716431,
				1.4446288347244263
			],
			"min":[
				-0.3726999759674072,
				0.5355397462844849,
				0.8941370248794556
			],
			"type":"VEC3"
		},
		{
			"bufferView":4,
			"componentType":5126,
			"count":10,
			"type":"VEC3"
		},
		{
			"bufferView":5,
			"componentType":5123,
			"count":12,
			"type":"SCALAR"
		}
	],
	"bufferViews":[
		{
			"buffer":0,
			"byteLength":13344,
			"byteOffset":0,
			"target":34962
		},
		{
			"buffer":0,
			"byteLength":13344,
			"byteOffset":13344,
			"target":34962
		},
		{
			"buffer":0,
			"byteLength":3744,
			"byteOffset":26688,
			"target":34963
		},
		{
			"buffer":0,
			"byteLength":120,
			"byteOffset":30432,
			"target":34962
		},
		{
			"buffer":0,
			"byteLength":120,
			"byteOffset":30552,
			"target":34962
		},
		{
			"buffer":0,
			"byteLength":24,
			"byteOffset":30672,
			"target":34963
		}
	],
	"buffers":[
		{
			"byteLength":30696,
			"uri":"data:application/octet-stream;base64,"
		}
	]
}
